<?xml version="1.0" encoding="UTF-8"?>
<svg xmlns="http://www.w3.org/2000/svg" viewBox="0 0 192 192" width="192" height="192">
  <defs>
    <style>
      .model-bg { fill: #cc3333; opacity: 0.9; }
      .model-frame { fill: none; stroke: #ffffff; stroke-width: 2; }
      .model-text { fill: #ffffff; font-family: Arial, sans-serif; font-weight: bold; }
      .model-label { font-size: 24px; text-anchor: middle; }
      .model-features { font-size: 8px; text-anchor: middle; }
      .port-indicator { fill: #333333; }
      .status-led { fill: #00ff00; }
    </style>
  </defs>
  
  <!-- Main device background -->
  <rect class="model-bg" x="32" y="48" width="128" height="96" rx="8" />
  <rect class="model-frame" x="32" y="48" width="128" height="96" rx="8" />
  
  <!-- Model label background -->
  <rect fill="#000000" opacity="0.7" x="52" y="56" width="88" height="28" rx="4" />
  
  <!-- Model label -->
  <text class="model-text model-label" x="96" y="75">600E</text>
  
  <!-- Device type indicator -->
  <text class="model-text model-features" x="96" y="95">FORTIGATE</text>
  
  <!-- Feature indicators -->
  <g id="features">
    <circle class="port-indicator" cx="48" cy="108" r="3" />
<circle class="port-indicator" cx="64" cy="108" r="3" />
<circle class="port-indicator" cx="80" cy="108" r="3" />

  </g>
  
  <!-- Port indicators -->
  <g id="ports">
    
            <!-- FortiGate port layout -->
            <rect class="port-indicator" x="40" y="120" width="4" height="12" />
            <rect class="port-indicator" x="48" y="120" width="4" height="12" />
            <rect class="port-indicator" x="56" y="120" width="4" height="12" />
            <rect class="port-indicator" x="64" y="120" width="4" height="12" />
            <rect class="port-indicator" x="72" y="120" width="4" height="12" />
            <rect class="port-indicator" x="80" y="120" width="4" height="12" />
            <rect class="port-indicator" x="88" y="120" width="4" height="12" />
            <rect class="port-indicator" x="96" y="120" width="4" height="12" />
            <rect class="port-indicator" x="104" y="120" width="4" height="12" />
            <rect class="port-indicator" x="112" y="120" width="4" height="12" />
            <rect class="port-indicator" x="120" y="120" width="4" height="12" />
            <rect class="port-indicator" x="128" y="120" width="4" height="12" />
            
  </g>
  
  <!-- Status LED -->
  <circle class="status-led" cx="160" cy="56" r="4" />
  
  <!-- Model-specific details -->
  <text class="model-text model-features" x="96" y="130" opacity="0.8">
    10 Gbps
  </text>
</svg>