<svg width="64" height="64" viewBox="0 0 64 64" fill="none" xmlns="http://www.w3.org/2000/svg">
  <!-- Apple Logo -->
  <circle cx="32" cy="32" r="24" fill="#000000" stroke="#333333" stroke-width="2"/>
  <!-- Apple shape -->
  <path d="M32 16C28 16 24 20 24 26C24 36 32 44 32 44C32 44 40 36 40 26C40 20 36 16 32 16Z" fill="#FFFFFF"/>
  <!-- Apple bite -->
  <path d="M32 16C32 16 30 14 28 14C26 14 24 16 24 18C24 20 26 22 28 22C30 22 32 20 32 18" fill="#000000"/>
  <!-- Leaf -->
  <path d="M32 16C32 16 34 14 36 14C38 14 40 16 40 18C40 20 38 22 36 22C34 22 32 20 32 18" fill="#2ECC71"/>
  <!-- Status indicator -->
  <circle cx="56" cy="56" r="3" fill="#10B981"/>
</svg>
