<?xml version="1.0" encoding="UTF-8"?>
<svg width="200" height="60" xmlns="http://www.w3.org/2000/svg">
    <defs>
        <linearGradient id="switchBody" x1="0%" y1="0%" x2="0%" y2="100%">
            <stop offset="0%" style="stop-color:#48bb78;stop-opacity:1" />
            <stop offset="100%" style="stop-color:#2f855a;stop-opacity:1" />
        </linearGradient>
    </defs>
    
    <!-- Switch body -->
    <rect x="10" y="15" width="180" height="30" rx="3" ry="3" 
          fill="url(#switchBody)" stroke="#2f855a" stroke-width="2"/>
    
    <!-- Port rows -->
    <g id="switchPorts">
        <!-- Top row of ports -->
        <rect x="20" y="25" width="6" height="3" fill="#2d3748" stroke="#1a202c" stroke-width="0.5"/>
        <rect x="28" y="25" width="6" height="3" fill="#2d3748" stroke="#1a202c" stroke-width="0.5"/>
        <rect x="36" y="25" width="6" height="3" fill="#2d3748" stroke="#1a202c" stroke-width="0.5"/>
        <rect x="44" y="25" width="6" height="3" fill="#2d3748" stroke="#1a202c" stroke-width="0.5"/>
        <rect x="52" y="25" width="6" height="3" fill="#2d3748" stroke="#1a202c" stroke-width="0.5"/>
        <rect x="60" y="25" width="6" height="3" fill="#2d3748" stroke="#1a202c" stroke-width="0.5"/>
        <rect x="68" y="25" width="6" height="3" fill="#2d3748" stroke="#1a202c" stroke-width="0.5"/>
        <rect x="76" y="25" width="6" height="3" fill="#2d3748" stroke="#1a202c" stroke-width="0.5"/>
        
        <!-- Bottom row of ports -->
        <rect x="20" y="32" width="6" height="3" fill="#2d3748" stroke="#1a202c" stroke-width="0.5"/>
        <rect x="28" y="32" width="6" height="3" fill="#2d3748" stroke="#1a202c" stroke-width="0.5"/>
        <rect x="36" y="32" width="6" height="3" fill="#2d3748" stroke="#1a202c" stroke-width="0.5"/>
        <rect x="44" y="32" width="6" height="3" fill="#2d3748" stroke="#1a202c" stroke-width="0.5"/>
        <rect x="52" y="32" width="6" height="3" fill="#2d3748" stroke="#1a202c" stroke-width="0.5"/>
        <rect x="60" y="32" width="6" height="3" fill="#2d3748" stroke="#1a202c" stroke-width="0.5"/>
        <rect x="68" y="32" width="6" height="3" fill="#2d3748" stroke="#1a202c" stroke-width="0.5"/>
        <rect x="76" y="32" width="6" height="3" fill="#2d3748" stroke="#1a202c" stroke-width="0.5"/>
    </g>
    
    <!-- Status LEDs -->
    <circle cx="100" y="30" r="2" fill="#48bb78" stroke="#2f855a" stroke-width="0.5"/>
    <circle cx="108" y="30" r="2" fill="#4299e1" stroke="#2b6cb1" stroke-width="0.5"/>
    
    <!-- Label -->
    <text x="100" y="55" text-anchor="middle" 
          font-family="Arial, sans-serif" font-size="9" fill="#e2e8f0">
        FortiSwitch
    </text>
</svg>